<svg width="100" height="100" viewBox="0 0 100 100" fill="none" xmlns="http://www.w3.org/2000/svg">
<g clip-path="url(#clip0_867_31214)">
<path d="M94.7 29.3C94.7 27.6 94.3 26.1 93.6 24.9C92.9 23.6 91.8 22.6 90.4 21.8C78.6 15 66.8 8.19997 55 1.29997C51.8 -0.500027 48.7 -0.500027 45.6 1.39997C40.9 4.19997 17.4 17.7 10.3 21.7C7.4 23.4 6 26 6 29.3C6 43 6 56.7 6 70.4C6 72 6.3 73.5 7 74.7C7.7 76 8.8 77.1 10.3 77.9C17.3 82 40.9 95.4 45.6 98.2C48.8 100.1 51.8 100.1 55 98.3C66.8 91.6 78.6 84.8 90.4 78C91.9 77.2 92.9 76.1 93.7 74.8C94.4 73.5 94.7 72.1 94.7 70.5C94.7 70.4 94.7 43 94.7 29.3Z" fill="#838383"/>
<path d="M50.5 49.7L7 74.8C7.7 76.1 8.8 77.2 10.3 78C17.3 82.1 40.9 95.5 45.6 98.3C48.8 100.2 51.8 100.2 55 98.4C66.8 91.6 78.6 84.8 90.4 78C91.9 77.2 92.9 76.1 93.7 74.8L50.5 49.7Z" fill="#3E3E3E"/>
<path d="M37.6001 57.1C40.1001 61.5 44.9001 64.5 50.3001 64.5C55.8001 64.5 60.6001 61.5 63.1001 57L50.4001 49.7L37.6001 57.1Z" fill="#3E3E3E"/>
<path d="M94.7 29.3C94.7 27.6 94.3 26.1 93.6 24.9L50.5 49.7L93.7 74.7C94.4 73.4 94.7 72 94.7 70.4C94.7 70.4 94.7 43 94.7 29.3Z" fill="#4C4C4C"/>
<path d="M92.4 51.5H89V54.9H85.6V51.5H82.2V48.1H85.6V44.7H89V48.1H92.4V51.5ZM80 51.5H76.6V54.9H73.2V51.5H69.8V48.1H73.2V44.7H76.6V48.1H80V51.5Z" fill="white"/>
<path d="M63.2 57.1C60.7 61.6 55.9 64.6 50.4 64.6C44.9 64.6 40.2 61.6 37.7 57.2C36.4 55 35.8 52.5 35.8 49.9C35.8 41.8 42.4 35.2 50.5 35.2C55.9 35.2 60.6 38.1 63.2 42.5L76 35.1C70.9 26.3 61.4 20.4 50.5 20.4C34.2 20.4 21 33.6 21 49.9C21 55.2 22.4 60.2 24.9 64.6C30 73.4 39.5 79.4 50.5 79.4C61.5 79.4 71 73.4 76.1 64.5L63.2 57.1Z" fill="white"/>
</g>
<defs>
<clipPath id="clip0_867_31214">
<rect width="100" height="100" fill="white"/>
</clipPath>
</defs>
</svg>
