<svg width="100" height="100" viewBox="0 0 100 100" fill="none" xmlns="http://www.w3.org/2000/svg">
<path d="M49.8657 0.000768407C45.7867 0.020091 41.8931 0.366932 38.4653 0.973662C28.3692 2.75714 26.5375 6.49027 26.5375 13.3759V22.4682H50.3941V25.4989H17.5834C10.6504 25.4989 4.57923 29.6658 2.67981 37.5958C0.488629 46.6823 0.392016 52.3535 2.67981 61.8419C4.37537 68.9053 8.4254 73.9369 15.3593 73.9369H23.5627V63.037C23.5627 55.162 30.3749 48.2165 38.4663 48.2165H62.2959C68.9294 48.2165 74.2238 42.754 74.2238 36.0935V13.3769C74.2238 6.91054 68.769 2.0538 62.2959 0.974629C58.1956 0.29254 53.9437 -0.0175881 49.8657 0.000768407ZM36.9639 7.31342C39.4276 7.31342 41.441 9.35872 41.441 11.8745C41.441 14.3797 39.4285 16.4057 36.9639 16.4057C34.4907 16.4057 32.4879 14.3797 32.4879 11.8745C32.4869 9.35872 34.4907 7.31342 36.9639 7.31342Z" fill="url(#paint0_linear_867_23500)"/>
<path d="M77.1981 25.4978V36.0924C77.1981 44.3045 70.2343 51.2172 62.2946 51.2172H38.465C31.9378 51.2172 26.5371 56.8043 26.5371 63.3412V86.0597C26.5371 92.5241 32.1581 96.3278 38.465 98.1818C46.0162 100.401 53.2584 100.803 62.2946 98.1818C68.3001 96.4418 74.2224 92.9425 74.2224 86.0597V76.9665H50.3938V73.9348H86.1522C93.0852 73.9348 95.6706 69.0993 98.082 61.8398C100.573 54.3668 100.465 47.1797 98.082 37.5938C96.3681 30.6907 93.0958 25.4968 86.1522 25.4968L77.1981 25.4978ZM63.795 83.028C66.2693 83.028 68.272 85.054 68.272 87.5611C68.272 90.075 66.2683 92.1203 63.795 92.1203C61.3314 92.1203 59.3189 90.075 59.3189 87.5611C59.3189 85.054 61.3314 83.028 63.795 83.028Z" fill="url(#paint1_linear_867_23500)"/>
<defs>
<linearGradient id="paint0_linear_867_23500" x1="10.1846" y1="9.20759" x2="59.4909" y2="57.6151" gradientUnits="userSpaceOnUse">
<stop stop-color="#6F6F6F"/>
<stop offset="1" stop-color="#5E5E5E"/>
</linearGradient>
<linearGradient id="paint1_linear_867_23500" x1="40.4261" y1="41.0946" x2="93.7406" y2="90.7994" gradientUnits="userSpaceOnUse">
<stop stop-color="#DADADA"/>
<stop offset="1" stop-color="#C5C5C5"/>
</linearGradient>
</defs>
</svg>
