<svg width="100" height="100" viewBox="0 0 100 100" fill="none" xmlns="http://www.w3.org/2000/svg">
<path fill-rule="evenodd" clip-rule="evenodd" d="M25.4 25H74.6C88.6 25 100 36.2 100 50C100 63.8 88.6 75 74.6 75H25.4C11.4 75 0 63.8 0 50C0 36.2 11.4 25 25.4 25ZM48 63.8C48.6 64.4 49.5 64.4 50.3 64.2C50.7 63.9 50.1 63.5 49.6 63.2C49.3 63 49 62.8 48.9 62.6C49.2 62.3 48.3 61.5 47.7 60.9C47.5 60.7 47.3 60.5 47.1 60.3C46.6 59.8 46.5 59.2 46.3 58.6C46.2 58.2 46.1 57.8 45.8 57.4C44.5 54.5 43.1 51.6 41 49.2C39.7 47.6 38.2 46.1 36.7 44.7C35.7 43.8 34.8 42.8 33.9 41.8C33 40.8 32.4 39.7 31.8 38.5C31.3 37.5 30.9 36.5 30.2 35.7C28.1 32.6 21.4 31.8 20.4 36.1C20.4 36.2 20.4 36.3 20.2 36.4C19.7 36.8 19.2 37.2 18.8 37.8C17.8 39.2 17.7 41.5 18.8 42.7C18.8 42 18.8 41.4 19.4 41C20.4 41.8 21.8 42.1 22.9 41.5C24.2 43.4 24.7 45.6 25.1 47.9C25.5 49.8 25.8 51.7 26.7 53.4C27.2 54.3 27.7 55.2 28.4 55.9C28.6 56.3 29.1 56.7 29.6 57.1C30.3 57.6 30.9 58.1 31 58.6V59.2C31 60.4 31 61.6 31.8 62.6C32.2 63.5 31.2 64.3 30.3 64.2C29.8 64.2 29.3 64.2 28.8 64C28.1 63.8 27.4 63.7 26.9 64C26.7 64.2 26.5 64.2 26.3 64.2C26 64.2 25.8 64.2 25.6 64.5C25.6 64.5 25.5 64.7 25.4 64.8C25.2 65 25 65.2 25.3 65.4C25.6 65.1 26 64.9 26.4 65C26.4 65.3 26.6 65.4 26.8 65.5H26.9C26.9 65.6 26.9 65.7 26.9 65.8C26.9 66 26.9 66.2 26.9 66.3C26.9 66.3 27 66.2 27.1 66.1C27.3 65.9 27.4 65.7 27.7 65.6C28.3 66.4 28.9 66.1 29.7 65.6C30.6 65.1 31.6 64.6 33.1 65.4C32.5 65.4 32 65.4 31.7 65.9C31.7 66 31.5 66.1 31.7 66.3C32.6 65.7 32.9 65.9 33.3 66.1C33.5 66.2 33.8 66.4 34.2 66.1L34.5 65.9C35.1 65.6 35.8 65.2 36.6 65.3C36 65.5 35.8 65.8 35.6 66.2C35.5 66.4 35.4 66.6 35.2 66.8C35.2 66.8 35.1 67 35.2 67.1C36.4 67.1 36.9 66.7 37.5 66.3C37.8 66.1 38.1 65.9 38.6 65.7C39.1 65.4 39.6 65.6 40.1 65.7C40.6 65.9 41.2 66.1 41.6 65.7C41.8 65.6 41.9 65.6 42.1 65.6C42.3 65.6 42.2 65.6 42.3 65.6C42.1 64.8 41.3 64.8 40.4 64.8C39.4 64.8 38.4 64.8 38.4 63.6C39.3 63 39.3 61.9 39.3 60.9C39.3 60.7 39.3 60.4 39.3 60.2C40 60.6 40.7 60.9 41.4 61.2C42.1 61.5 42.7 61.7 43.4 62.1C44.1 63.1 45.1 64.5 46.5 64.4C46.5 64.3 46.5 64.2 46.6 64.1H46.8C47.2 64.1 47.5 64.3 47.7 63.9L48 63.8ZM74.8 52C75.6 52.8 76.7 53.2 77.8 53.2C78.9 53.2 80 52.8 80.8 52C81.2 51.6 81.5 51.2 81.7 50.7C81.9 50.2 82 49.7 82 49.1C82 48.6 81.9 48 81.7 47.5C81.5 47 81.2 46.5 80.8 46.2C80.2 45.6 79.5 45.2 78.7 45.1C77.9 45 77.1 45.1 76.3 45.3L73.9 41.8L72.2 42.9L74.6 46.4C73.9 47.2 73.5 48.2 73.6 49.2C73.6 50.2 74.1 51.2 74.8 52ZM67.2 40.8C67.9 41.1 68.7 41.3 69.5 41.2C70.3 41.2 71 40.9 71.6 40.4C72.3 39.9 72.8 39.1 73.1 38.3C73.4 37.5 73.3 36.5 73.1 35.7C72.8 34.9 72.2 34.2 71.5 33.7C70.7 33.2 69.7 32.9 68.7 33C67.7 33.1 66.8 33.6 66.1 34.3C65.6 34.8 65.3 35.3 65.1 36C64.9 36.6 64.9 37.3 65 37.9C65.1 38.5 65.4 39.1 65.8 39.7C66.2 40.2 66.7 40.6 67.3 40.9L67.2 40.8ZM67.2 64.7C67.9 65 68.7 65.2 69.5 65.1C70.3 65.1 71 64.8 71.6 64.3C72.3 63.8 72.8 63 73.1 62.2C73.4 61.4 73.3 60.4 73.1 59.6C72.8 58.8 72.2 58.1 71.5 57.6C70.7 57.1 69.7 56.8 68.7 56.9C67.7 57 66.8 57.5 66.1 58.2C65.6 58.7 65.3 59.2 65.1 59.9C64.9 60.5 64.9 61.2 65 61.8C65.1 62.4 65.4 63 65.8 63.6C66.2 64.1 66.7 64.5 67.3 64.8L67.2 64.7ZM71.1 50.1V48.1H64.6C64.4 47.5 64.1 46.9 63.7 46.4L66.1 42.9L64.3 41.7L61.9 45.2C61.2 44.9 60.4 44.9 59.6 45.1C58.8 45.3 58.1 45.6 57.6 46.2C57.2 46.6 56.9 47 56.7 47.5C56.5 48 56.4 48.5 56.4 49.1C56.4 50.2 56.8 51.2 57.6 52C58.2 52.5 58.9 52.9 59.6 53.1C60.4 53.3 61.2 53.2 61.9 53L64.3 56.5L66.1 55.3L63.7 51.8C64.1 51.3 64.4 50.7 64.6 50.1H71.1Z" fill="#323232"/>
</svg>
