<svg width="100" height="100" viewBox="0 0 100 100" fill="none" xmlns="http://www.w3.org/2000/svg">
<path d="M34.9 60.4001C34.9 60.2001 35 59.9001 35.1 59.7001L35.4 60.3C35.9 61.5 36.4 62.6 37.5 63.3C37.5 64.4 36.1 64.8 35.2 64.7C35 64.2 34.7 63.8 34.1 64C33.5 64.2001 32.9 64 33 63.2001C34.4 63.2001 34.7 61.7001 34.9 60.4001ZM76.6 38.5C75.3 38.5 74 39.0001 73.1 39.9001L69.3 43.6C68.3 44.6 67.8 46.0001 67.9 47.4001V47.6C68.1 48.7 68.5 49.7001 69.3 50.4001C69.8 50.9001 70.4 51.3 71.2 51.5C71.3 52.1 71.2 52.7001 71.1 53.2001C70.9 53.8001 70.6 54.3001 70.2 54.7001L70 54.9001C68.6 54.4001 67.3 53.6001 66.3 52.4001C65.3 51.3001 64.6 49.9001 64.4 48.4001V48.2001L64.2 48.4001C64.1 48.4001 63.9 48.6 63.8 48.7001L60 52.4001C59.5 52.8001 59.2 53.4 58.9 54C58.7 54.6 58.5 55.2001 58.5 55.9001C58.5 56.6001 58.6 57.2 58.9 57.8C59.1 58.4 59.5 58.9001 60 59.4001C61 60.4001 62.2 60.8 63.5 60.8C64.8 60.8 66 60.3001 67 59.4001L70.8 55.7001C71.4 55.1 71.8 54.4 72.1 53.6C72.3 52.8 72.4 52.0001 72.1 51.2001C71.9 50.4001 71.5 49.7 71 49C70.4 48.4 69.8 47.9001 69 47.7001C68.9 47.1 69 46.4 69.1 45.8C69.3 45.2 69.6 44.6001 70.1 44.2001C71.5 44.7001 72.8 45.5001 73.8 46.7001C74.8 47.8001 75.5 49.2001 75.8 50.7001V50.9001L76 50.7001C76.1 50.6 76.2 50.5001 76.4 50.4001L80.2 46.7001C80.7 46.3001 81 45.7 81.3 45.1C81.5 44.5 81.7 43.9001 81.7 43.2001C81.7 42.5001 81.6 41.9 81.3 41.3C81.1 40.7 80.7 40.2001 80.2 39.7001C79.3 38.8001 78 38.3 76.7 38.3L76.6 38.5Z" fill="#323232"/>
<path fill-rule="evenodd" clip-rule="evenodd" d="M74.6 25H25.4C11.4 25 0 36.2 0 50C0 63.8 11.4 75 25.4 75H74.6C88.6 75 100 63.8 100 50C100 36.2 88.6 25 74.6 25ZM50.3 64.2C49.5 64.4 48.6 64.4 48 63.8C47.8 64.2 47.4 64.1 47.1 64C47.1 64 46.9 64 46.8 64C46.8 64.1 46.8 64.2 46.7 64.3C45.3 64.3 44.3 63 43.6 62C43 61.7 42.3 61.4 41.6 61.1C40.9 60.8 40.2 60.5 39.5 60.1C39.5 60.3 39.5 60.6 39.5 60.8C39.5 61.8 39.5 62.9 38.6 63.5C38.6 64.7 39.6 64.7 40.6 64.7C41.5 64.7 42.3 64.7 42.5 65.5C42.5 65.5 42.4 65.5 42.3 65.5C42.1 65.5 41.9 65.5 41.8 65.6C41.3 66.1 40.8 65.9 40.2 65.6C39.7 65.4 39.2 65.2 38.7 65.6C38.3 65.8 38 66 37.6 66.2C36.9 66.7 36.1 67 35.3 67C35.2 66.8 35.3 66.8 35.3 66.7C35.3 66.7 35.4 66.5 35.5 66.5C35.5 66.4 35.6 66.3 35.7 66.2C35.9 65.8 36.1 65.4 36.7 65.3C35.9 65.2 35.3 65.5 34.6 65.9C34.6 65.9 34.4 66 34.3 66.1C33.9 66.3 33.7 66.1 33.4 66.1C33.1 65.9 32.7 65.7 31.8 66.3C31.6 66.2 31.8 66 31.8 65.9C32.2 65.4 32.7 65.4 33.2 65.4C31.7 64.6 30.7 65.2 29.8 65.6C29 66 28.4 66.3 27.8 65.6C27.5 65.6 27.4 65.9 27.2 66C27.2 66 27.1 66.2 27 66.2C26.9 66 26.9 65.9 27 65.7C27 65.6 27 65.5 27 65.5H26.9C26.7 65.4 26.5 65.3 26.5 64.9C26 64.7 25.7 65 25.3 65.3C25.1 65.1 25.3 64.9 25.4 64.7C25.4 64.7 25.5 64.5 25.6 64.4C25.8 64.1 26 64.1 26.3 64.1C26.5 64.1 26.8 64.1 26.9 63.9C27.5 63.6 28.1 63.8 28.8 63.9C29.3 64 29.8 64.1 30.3 64.1C31.1 64.2 32.2 63.3 31.8 62.5C31 61.5 31 60.3 31 59.1V58.5C31 58 30.3 57.5 29.6 57C29.1 56.6 28.6 56.2 28.4 55.8C27.7 55.1 27.2 54.2 26.7 53.4C25.8 51.6 25.5 49.7 25.1 47.8C24.7 45.5 24.2 43.3 22.9 41.4C21.8 42 20.3 41.7 19.4 40.9C18.9 41.3 18.9 41.9 18.8 42.6C17.6 41.4 17.7 39.1 18.8 37.8C19.2 37.3 19.7 36.8 20.2 36.4C20.3 36.4 20.4 36.2 20.4 36.1C21.4 31.8 28 32.6 30.2 35.7C30.9 36.6 31.4 37.5 31.8 38.5C32.4 39.7 32.9 40.9 33.9 41.8C34.8 42.8 35.8 43.7 36.7 44.7C38.2 46.2 39.7 47.6 41 49.2C43 51.6 44.5 54.5 45.8 57.4C46 57.8 46.1 58.2 46.3 58.6C46.5 59.2 46.7 59.8 47.1 60.3C47.2 60.4 47.4 60.7 47.7 60.9C48.3 61.5 49.2 62.3 48.9 62.6C48.9 62.6 49 62.8 49.1 62.8C49.2 62.9 49.4 63 49.6 63.2C50.1 63.6 50.6 63.9 50.3 64.2ZM82.7 49.4L78.9 53.1C77.9 54.1 76.7 54.8 75.3 55.2C74.9 56.3 74.2 57.4 73.3 58.2L69.5 61.9C67.9 63.5 65.7 64.4 63.4 64.4C61.1 64.4 58.9 63.5 57.3 61.9C56.5 61.1 55.9 60.2 55.4 59.1C55 58.1 54.7 56.9 54.7 55.8C54.7 54.7 54.9 53.6 55.4 52.5C55.8 51.5 56.5 50.5 57.3 49.7L61.1 46C62.1 45 63.3 44.3 64.7 43.9C65.1 42.8 65.8 41.7 66.7 40.9L70.5 37.2C72.1 35.6 74.3 34.7 76.6 34.7C78.9 34.7 81.1 35.6 82.7 37.2C84.3 38.8 85.2 41 85.2 43.2C85.2 45.4 84.3 47.6 82.7 49.2V49.4Z" fill="#323232"/>
</svg>
