<svg width="100" height="100" viewBox="0 0 100 100" fill="none" xmlns="http://www.w3.org/2000/svg">
<path d="M49.802 58.7999C54.6535 58.7999 58.5149 54.9 58.5149 50C58.5149 45.1 54.6535 41.2 49.802 41.2C44.9505 41.2 41.0891 45.1 41.0891 50C41.0891 54.9 44.9505 58.7999 49.802 58.7999Z" fill="#B9B9B9"/>
<path d="M49.8019 68.0999C75.6435 68.0999 96.6336 59.9999 96.6336 49.9999C96.6336 39.9999 75.6435 31.8999 49.8019 31.8999C23.9603 31.8999 2.97021 39.9999 2.97021 49.9999C2.97021 59.9999 23.9603 68.0999 49.8019 68.0999Z" stroke="#B9B9B9" stroke-width="5"/>
<path d="M34.3564 59C47.2277 81.7 64.6534 96 73.2673 91C81.7821 86 78.3168 63.6 65.3465 41C52.3762 18.3 34.9504 4.00002 26.4356 9.00002C17.8217 14 21.3861 36.4 34.3564 59Z" stroke="#B9B9B9" stroke-width="5"/>
<path d="M34.3565 41C21.3862 63.6 17.9208 86 26.4357 91C34.9505 96 52.3763 81.7 65.2475 59C78.2178 36.4 81.7822 14 73.2673 9.00002C64.6535 4.00002 47.2277 18.3 34.3565 41Z" stroke="#B9B9B9" stroke-width="5"/>
</svg>
